<mxfile host="app.diagrams.net" modified="2023-02-26T16:25:08.224Z" agent="5.0 (Windows NT 10.0; Win64; x64) AppleWebKit/537.36 (KHTML, like Gecko) Chrome/110.0.0.0 Safari/537.36 Edg/110.0.1587.57" etag="qofi6Lyh14-priVmMbC1" version="20.8.23" type="github">
  <diagram name="第 1 页" id="ysNq_pj6B-0FIOpKrWJL">
    <mxGraphModel dx="1387" dy="834" grid="0" gridSize="10" guides="1" tooltips="1" connect="1" arrows="1" fold="1" page="1" pageScale="1" pageWidth="827" pageHeight="1169" math="0" shadow="0">
      <root>
        <mxCell id="0" />
        <mxCell id="1" parent="0" />
        <mxCell id="zfFJc-fwG49pLW_iXGj7-4" value="" style="group" vertex="1" connectable="0" parent="1">
          <mxGeometry x="20" y="252" width="198" height="285" as="geometry" />
        </mxCell>
        <mxCell id="zfFJc-fwG49pLW_iXGj7-1" value="鼠标触发" style="whiteSpace=wrap;html=1;fillColor=#dae8fc;strokeColor=#6c8ebf;" vertex="1" parent="zfFJc-fwG49pLW_iXGj7-4">
          <mxGeometry y="162" width="198" height="60" as="geometry" />
        </mxCell>
        <mxCell id="zfFJc-fwG49pLW_iXGj7-2" value="鼠标事件" style="ellipse;whiteSpace=wrap;html=1;aspect=fixed;fillColor=#dae8fc;strokeColor=#6c8ebf;" vertex="1" parent="zfFJc-fwG49pLW_iXGj7-4">
          <mxGeometry x="27.5" width="143" height="143" as="geometry" />
        </mxCell>
        <mxCell id="zfFJc-fwG49pLW_iXGj7-3" value="click&lt;span style=&quot;white-space: pre;&quot;&gt;	&lt;/span&gt;&amp;nbsp; &amp;nbsp; &amp;nbsp; &amp;nbsp; &amp;nbsp; &amp;nbsp; 鼠标点击&lt;br&gt;mouseenter 鼠标经过&lt;br&gt;mouseleave 鼠标离开" style="text;html=1;align=left;verticalAlign=middle;resizable=0;points=[];autosize=1;strokeColor=none;fillColor=none;" vertex="1" parent="zfFJc-fwG49pLW_iXGj7-4">
          <mxGeometry y="230" width="134" height="55" as="geometry" />
        </mxCell>
        <mxCell id="zfFJc-fwG49pLW_iXGj7-5" value="" style="group" vertex="1" connectable="0" parent="1">
          <mxGeometry x="311" y="252" width="198" height="285" as="geometry" />
        </mxCell>
        <mxCell id="zfFJc-fwG49pLW_iXGj7-6" value="表单获得光标" style="whiteSpace=wrap;html=1;fillColor=#ffe6cc;strokeColor=#d79b00;" vertex="1" parent="zfFJc-fwG49pLW_iXGj7-5">
          <mxGeometry y="162" width="198" height="60" as="geometry" />
        </mxCell>
        <mxCell id="zfFJc-fwG49pLW_iXGj7-7" value="焦点事件" style="ellipse;whiteSpace=wrap;html=1;aspect=fixed;fillColor=#ffe6cc;strokeColor=#d79b00;" vertex="1" parent="zfFJc-fwG49pLW_iXGj7-5">
          <mxGeometry x="27.5" width="143" height="143" as="geometry" />
        </mxCell>
        <mxCell id="zfFJc-fwG49pLW_iXGj7-8" value="focus 获得焦点&lt;br&gt;blur&amp;nbsp; &amp;nbsp; 失去焦点" style="text;html=1;align=left;verticalAlign=middle;resizable=0;points=[];autosize=1;strokeColor=none;fillColor=none;" vertex="1" parent="zfFJc-fwG49pLW_iXGj7-5">
          <mxGeometry y="237" width="99" height="41" as="geometry" />
        </mxCell>
        <mxCell id="zfFJc-fwG49pLW_iXGj7-9" value="" style="group" vertex="1" connectable="0" parent="1">
          <mxGeometry x="613" y="252" width="198" height="285" as="geometry" />
        </mxCell>
        <mxCell id="zfFJc-fwG49pLW_iXGj7-10" value="键盘触发" style="whiteSpace=wrap;html=1;fillColor=#d5e8d4;strokeColor=#82b366;" vertex="1" parent="zfFJc-fwG49pLW_iXGj7-9">
          <mxGeometry y="162" width="198" height="60" as="geometry" />
        </mxCell>
        <mxCell id="zfFJc-fwG49pLW_iXGj7-11" value="键盘事件" style="ellipse;whiteSpace=wrap;html=1;aspect=fixed;fillColor=#d5e8d4;strokeColor=#82b366;" vertex="1" parent="zfFJc-fwG49pLW_iXGj7-9">
          <mxGeometry x="27.5" width="143" height="143" as="geometry" />
        </mxCell>
        <mxCell id="zfFJc-fwG49pLW_iXGj7-12" value="keydown 键盘按下触发&lt;br&gt;keyup&amp;nbsp; &amp;nbsp; &amp;nbsp; 键盘抬起触发" style="text;html=1;align=left;verticalAlign=middle;resizable=0;points=[];autosize=1;strokeColor=none;fillColor=none;" vertex="1" parent="zfFJc-fwG49pLW_iXGj7-9">
          <mxGeometry y="237" width="142" height="41" as="geometry" />
        </mxCell>
        <mxCell id="zfFJc-fwG49pLW_iXGj7-13" value="" style="group" vertex="1" connectable="0" parent="1">
          <mxGeometry x="910" y="252" width="198" height="285" as="geometry" />
        </mxCell>
        <mxCell id="zfFJc-fwG49pLW_iXGj7-14" value="表单输入触发" style="whiteSpace=wrap;html=1;fillColor=#e1d5e7;strokeColor=#9673a6;" vertex="1" parent="zfFJc-fwG49pLW_iXGj7-13">
          <mxGeometry y="162" width="198" height="60" as="geometry" />
        </mxCell>
        <mxCell id="zfFJc-fwG49pLW_iXGj7-15" value="文本事件" style="ellipse;whiteSpace=wrap;html=1;aspect=fixed;fillColor=#e1d5e7;strokeColor=#9673a6;" vertex="1" parent="zfFJc-fwG49pLW_iXGj7-13">
          <mxGeometry x="27.5" width="143" height="143" as="geometry" />
        </mxCell>
        <mxCell id="zfFJc-fwG49pLW_iXGj7-16" value="input 用户输入事件" style="text;html=1;align=left;verticalAlign=middle;resizable=0;points=[];autosize=1;strokeColor=none;fillColor=none;" vertex="1" parent="zfFJc-fwG49pLW_iXGj7-13">
          <mxGeometry y="245" width="119" height="26" as="geometry" />
        </mxCell>
      </root>
    </mxGraphModel>
  </diagram>
</mxfile>
